STARTFONT 2.1
COMMENT
COMMENT Converted from OpenType font "BeVietnam-Bold.ttf" by "otf2bdf 3.0".
COMMENT
FONT -FreeType-Be Vietnam-Bold-R-Normal--10-70-100-100-P-51-ISO10646-1
SIZE 7 100 100
FONTBOUNDINGBOX 15 13 -4 -2
STARTPROPERTIES 19
FOUNDRY "FreeType"
FAMILY_NAME "Be Vietnam"
WEIGHT_NAME "Bold"
SLANT "R"
SETWIDTH_NAME "Normal"
ADD_STYLE_NAME ""
PIXEL_SIZE 10
POINT_SIZE 70
RESOLUTION_X 100
RESOLUTION_Y 100
SPACING "P"
AVERAGE_WIDTH 51
CHARSET_REGISTRY "ISO10646"
CHARSET_ENCODING "1"
FONT_ASCENT 11
FONT_DESCENT 2
COPYRIGHT "Copyright 2019 The Bevietnam Project Authors (https://github.com/bettergui/beVietnam)"
_OTF_FONTFILE "BeVietnam-Bold.ttf"
_OTF_PSNAME "BeVietnam-Bold"
ENDPROPERTIES
CHARS 445
STARTCHAR 000D
ENCODING 13
SWIDTH 514 0
DWIDTH 5 0
BBX 0 0 0 0
BITMAP
ENDCHAR
STARTCHAR 0020
ENCODING 32
SWIDTH 205 0
DWIDTH 2 0
BBX 0 0 0 0
BITMAP
ENDCHAR
STARTCHAR 0021
ENCODING 33
SWIDTH 205 0
DWIDTH 2 0
BBX 1 7 1 0
BITMAP
80
80
80
80
80
00
80
ENDCHAR
STARTCHAR 0022
ENCODING 34
SWIDTH 514 0
DWIDTH 5 0
BBX 4 3 1 5
BITMAP
80
A0
B0
ENDCHAR
STARTCHAR 0023
ENCODING 35
SWIDTH 822 0
DWIDTH 8 0
BBX 7 7 1 0
BITMAP
24
24
FE
28
FC
48
58
ENDCHAR
STARTCHAR 0024
ENCODING 36
SWIDTH 514 0
DWIDTH 5 0
BBX 5 7 0 -1
BITMAP
30
68
60
70
28
E8
78
ENDCHAR
STARTCHAR 0025
ENCODING 37
SWIDTH 720 0
DWIDTH 7 0
BBX 7 7 0 0
BITMAP
64
AC
68
10
16
26
26
ENDCHAR
STARTCHAR 0026
ENCODING 38
SWIDTH 617 0
DWIDTH 6 0
BBX 6 7 0 0
BITMAP
38
68
60
2C
58
D8
74
ENDCHAR
STARTCHAR 0027
ENCODING 39
SWIDTH 205 0
DWIDTH 2 0
BBX 1 3 1 5
BITMAP
80
80
80
ENDCHAR
STARTCHAR 0028
ENCODING 40
SWIDTH 411 0
DWIDTH 4 0
BBX 3 10 1 -2
BITMAP
20
40
40
80
80
80
80
C0
40
20
ENDCHAR
STARTCHAR 0029
ENCODING 41
SWIDTH 514 0
DWIDTH 5 0
BBX 3 10 1 -2
BITMAP
80
40
20
20
20
20
20
20
40
40
ENDCHAR
STARTCHAR 002A
ENCODING 42
SWIDTH 514 0
DWIDTH 5 0
BBX 3 3 1 4
BITMAP
E0
40
E0
ENDCHAR
STARTCHAR 002B
ENCODING 43
SWIDTH 514 0
DWIDTH 5 0
BBX 4 4 1 1
BITMAP
40
F0
F0
40
ENDCHAR
STARTCHAR 002C
ENCODING 44
SWIDTH 308 0
DWIDTH 3 0
BBX 1 3 1 -2
BITMAP
80
80
80
ENDCHAR
STARTCHAR 002D
ENCODING 45
SWIDTH 514 0
DWIDTH 5 0
BBX 4 2 1 2
BITMAP
F0
F0
ENDCHAR
STARTCHAR 002E
ENCODING 46
SWIDTH 308 0
DWIDTH 3 0
BBX 1 1 1 0
BITMAP
80
ENDCHAR
STARTCHAR 002F
ENCODING 47
SWIDTH 514 0
DWIDTH 5 0
BBX 5 10 0 -2
BITMAP
08
18
10
10
20
20
60
40
40
C0
ENDCHAR
STARTCHAR 0030
ENCODING 48
SWIDTH 617 0
DWIDTH 6 0
BBX 6 7 0 0
BITMAP
78
48
CC
CC
CC
48
78
ENDCHAR
STARTCHAR 0031
ENCODING 49
SWIDTH 514 0
DWIDTH 5 0
BBX 4 7 1 0
BITMAP
40
C0
C0
40
40
40
F0
ENDCHAR
STARTCHAR 0032
ENCODING 50
SWIDTH 514 0
DWIDTH 5 0
BBX 4 7 1 0
BITMAP
E0
90
10
30
60
C0
F0
ENDCHAR
STARTCHAR 0033
ENCODING 51
SWIDTH 514 0
DWIDTH 5 0
BBX 5 7 0 0
BITMAP
78
48
08
30
08
C8
78
ENDCHAR
STARTCHAR 0034
ENCODING 52
SWIDTH 514 0
DWIDTH 5 0
BBX 6 7 0 0
BITMAP
18
38
38
58
FC
18
18
ENDCHAR
STARTCHAR 0035
ENCODING 53
SWIDTH 514 0
DWIDTH 5 0
BBX 4 7 1 0
BITMAP
F0
80
A0
F0
10
90
F0
ENDCHAR
STARTCHAR 0036
ENCODING 54
SWIDTH 514 0
DWIDTH 5 0
BBX 5 7 0 0
BITMAP
30
20
40
78
C8
48
78
ENDCHAR
STARTCHAR 0037
ENCODING 55
SWIDTH 514 0
DWIDTH 5 0
BBX 5 7 0 0
BITMAP
F8
08
10
10
20
20
60
ENDCHAR
STARTCHAR 0038
ENCODING 56
SWIDTH 514 0
DWIDTH 5 0
BBX 4 7 1 0
BITMAP
F0
90
90
60
90
90
F0
ENDCHAR
STARTCHAR 0039
ENCODING 57
SWIDTH 514 0
DWIDTH 5 0
BBX 5 7 0 0
BITMAP
70
48
C8
58
28
10
30
ENDCHAR
STARTCHAR 003A
ENCODING 58
SWIDTH 308 0
DWIDTH 3 0
BBX 1 5 1 0
BITMAP
80
00
00
00
80
ENDCHAR
STARTCHAR 003B
ENCODING 59
SWIDTH 308 0
DWIDTH 3 0
BBX 2 7 1 -2
BITMAP
80
00
00
00
C0
40
80
ENDCHAR
STARTCHAR 003C
ENCODING 60
SWIDTH 514 0
DWIDTH 5 0
BBX 4 4 1 1
BITMAP
30
C0
E0
30
ENDCHAR
STARTCHAR 003D
ENCODING 61
SWIDTH 617 0
DWIDTH 6 0
BBX 5 4 1 1
BITMAP
F8
F8
00
F8
ENDCHAR
STARTCHAR 003E
ENCODING 62
SWIDTH 514 0
DWIDTH 5 0
BBX 4 4 1 1
BITMAP
C0
30
60
80
ENDCHAR
STARTCHAR 003F
ENCODING 63
SWIDTH 514 0
DWIDTH 5 0
BBX 4 7 1 0
BITMAP
E0
90
10
30
60
00
60
ENDCHAR
STARTCHAR 0040
ENCODING 64
SWIDTH 925 0
DWIDTH 9 0
BBX 8 9 1 -2
BITMAP
3C
42
95
AD
A5
BD
82
60
1C
ENDCHAR
STARTCHAR 0041
ENCODING 65
SWIDTH 617 0
DWIDTH 6 0
BBX 6 7 0 0
BITMAP
10
30
28
68
78
44
C4
ENDCHAR
STARTCHAR 0042
ENCODING 66
SWIDTH 617 0
DWIDTH 6 0
BBX 5 7 1 0
BITMAP
F0
90
90
F0
98
98
F0
ENDCHAR
STARTCHAR 0043
ENCODING 67
SWIDTH 617 0
DWIDTH 6 0
BBX 6 7 0 0
BITMAP
38
6C
44
C0
40
44
38
ENDCHAR
STARTCHAR 0044
ENCODING 68
SWIDTH 617 0
DWIDTH 6 0
BBX 5 7 1 0
BITMAP
F0
98
88
88
88
98
F0
ENDCHAR
STARTCHAR 0045
ENCODING 69
SWIDTH 514 0
DWIDTH 5 0
BBX 4 7 1 0
BITMAP
F0
80
80
F0
80
80
F0
ENDCHAR
STARTCHAR 0046
ENCODING 70
SWIDTH 411 0
DWIDTH 4 0
BBX 4 7 1 0
BITMAP
F0
80
80
F0
80
80
80
ENDCHAR
STARTCHAR 0047
ENCODING 71
SWIDTH 617 0
DWIDTH 6 0
BBX 6 7 0 0
BITMAP
38
6C
40
CC
44
44
3C
ENDCHAR
STARTCHAR 0048
ENCODING 72
SWIDTH 617 0
DWIDTH 6 0
BBX 5 7 1 0
BITMAP
88
88
88
F8
88
88
88
ENDCHAR
STARTCHAR 0049
ENCODING 73
SWIDTH 205 0
DWIDTH 2 0
BBX 1 7 1 0
BITMAP
80
80
80
80
80
80
80
ENDCHAR
STARTCHAR 004A
ENCODING 74
SWIDTH 308 0
DWIDTH 3 0
BBX 3 7 0 0
BITMAP
20
20
20
20
20
20
E0
ENDCHAR
STARTCHAR 004B
ENCODING 75
SWIDTH 617 0
DWIDTH 6 0
BBX 5 7 1 0
BITMAP
98
B0
E0
E0
A0
B0
98
ENDCHAR
STARTCHAR 004C
ENCODING 76
SWIDTH 514 0
DWIDTH 5 0
BBX 4 7 1 0
BITMAP
80
80
80
80
80
80
F0
ENDCHAR
STARTCHAR 004D
ENCODING 77
SWIDTH 822 0
DWIDTH 8 0
BBX 7 7 1 0
BITMAP
CE
CE
CE
FE
B6
B6
B6
ENDCHAR
STARTCHAR 004E
ENCODING 78
SWIDTH 617 0
DWIDTH 6 0
BBX 5 7 1 0
BITMAP
88
C8
C8
A8
B8
98
98
ENDCHAR
STARTCHAR 004F
ENCODING 79
SWIDTH 720 0
DWIDTH 7 0
BBX 7 7 0 0
BITMAP
38
6C
46
C6
C6
64
38
ENDCHAR
STARTCHAR 0050
ENCODING 80
SWIDTH 514 0
DWIDTH 5 0
BBX 5 7 1 0
BITMAP
E0
90
98
90
E0
80
80
ENDCHAR
STARTCHAR 0051
ENCODING 81
SWIDTH 720 0
DWIDTH 7 0
BBX 7 7 0 0
BITMAP
38
6C
46
C6
D6
6C
3C
ENDCHAR
STARTCHAR 0052
ENCODING 82
SWIDTH 514 0
DWIDTH 5 0
BBX 5 7 1 0
BITMAP
E0
90
98
F0
E0
B0
90
ENDCHAR
STARTCHAR 0053
ENCODING 83
SWIDTH 514 0
DWIDTH 5 0
BBX 4 7 1 0
BITMAP
F0
90
80
F0
10
90
F0
ENDCHAR
STARTCHAR 0054
ENCODING 84
SWIDTH 514 0
DWIDTH 5 0
BBX 5 7 0 0
BITMAP
F8
30
30
30
30
30
30
ENDCHAR
STARTCHAR 0055
ENCODING 85
SWIDTH 617 0
DWIDTH 6 0
BBX 5 7 1 0
BITMAP
88
88
88
88
88
98
F0
ENDCHAR
STARTCHAR 0056
ENCODING 86
SWIDTH 617 0
DWIDTH 6 0
BBX 6 7 0 0
BITMAP
C4
44
4C
68
28
38
30
ENDCHAR
STARTCHAR 0057
ENCODING 87
SWIDTH 925 0
DWIDTH 9 0
BBX 10 7 0 0
BITMAP
CCC0
CC80
4C80
5D80
5700
7300
3300
ENDCHAR
STARTCHAR 0058
ENCODING 88
SWIDTH 617 0
DWIDTH 6 0
BBX 6 7 0 0
BITMAP
C4
68
38
30
38
68
44
ENDCHAR
STARTCHAR 0059
ENCODING 89
SWIDTH 617 0
DWIDTH 6 0
BBX 6 7 0 0
BITMAP
CC
48
68
30
30
30
30
ENDCHAR
STARTCHAR 005A
ENCODING 90
SWIDTH 617 0
DWIDTH 6 0
BBX 6 7 0 0
BITMAP
FC
08
18
30
60
40
FC
ENDCHAR
STARTCHAR 005B
ENCODING 91
SWIDTH 411 0
DWIDTH 4 0
BBX 3 10 1 -2
BITMAP
E0
80
80
80
80
80
80
80
80
E0
ENDCHAR
STARTCHAR 005C
ENCODING 92
SWIDTH 514 0
DWIDTH 5 0
BBX 5 10 0 -2
BITMAP
C0
40
40
60
20
20
30
10
10
08
ENDCHAR
STARTCHAR 005D
ENCODING 93
SWIDTH 411 0
DWIDTH 4 0
BBX 3 10 1 -2
BITMAP
E0
20
20
20
20
20
20
20
20
E0
ENDCHAR
STARTCHAR 005E
ENCODING 94
SWIDTH 411 0
DWIDTH 4 0
BBX 4 2 0 5
BITMAP
60
90
ENDCHAR
STARTCHAR 005F
ENCODING 95
SWIDTH 617 0
DWIDTH 6 0
BBX 5 1 1 0
BITMAP
F8
ENDCHAR
STARTCHAR 0060
ENCODING 96
SWIDTH 205 0
DWIDTH 2 0
BBX 1 2 1 6
BITMAP
80
80
ENDCHAR
STARTCHAR 0061
ENCODING 97
SWIDTH 617 0
DWIDTH 6 0
BBX 5 5 0 0
BITMAP
78
C8
C8
C8
78
ENDCHAR
STARTCHAR 0062
ENCODING 98
SWIDTH 514 0
DWIDTH 5 0
BBX 5 7 1 0
BITMAP
80
80
F0
90
98
90
F0
ENDCHAR
STARTCHAR 0063
ENCODING 99
SWIDTH 514 0
DWIDTH 5 0
BBX 5 5 0 0
BITMAP
78
48
C0
48
70
ENDCHAR
STARTCHAR 0064
ENCODING 100
SWIDTH 514 0
DWIDTH 5 0
BBX 5 7 0 0
BITMAP
08
08
78
C8
C8
48
78
ENDCHAR
STARTCHAR 0065
ENCODING 101
SWIDTH 514 0
DWIDTH 5 0
BBX 5 5 0 0
BITMAP
78
48
F8
48
70
ENDCHAR
STARTCHAR 0066
ENCODING 102
SWIDTH 308 0
DWIDTH 3 0
BBX 4 7 0 0
BITMAP
70
40
F0
40
40
40
40
ENDCHAR
STARTCHAR 0067
ENCODING 103
SWIDTH 514 0
DWIDTH 5 0
BBX 5 7 0 -2
BITMAP
78
C8
C8
48
78
08
38
ENDCHAR
STARTCHAR 0068
ENCODING 104
SWIDTH 514 0
DWIDTH 5 0
BBX 4 7 1 0
BITMAP
80
80
F0
90
90
90
90
ENDCHAR
STARTCHAR 0069
ENCODING 105
SWIDTH 205 0
DWIDTH 2 0
BBX 1 7 1 1
BITMAP
80
00
80
80
80
80
80
ENDCHAR
STARTCHAR 006A
ENCODING 106
SWIDTH 205 0
DWIDTH 2 0
BBX 2 10 0 -2
BITMAP
40
40
00
40
40
40
40
40
40
C0
ENDCHAR
STARTCHAR 006B
ENCODING 107
SWIDTH 514 0
DWIDTH 5 0
BBX 4 7 1 0
BITMAP
80
80
B0
E0
C0
A0
B0
ENDCHAR
STARTCHAR 006C
ENCODING 108
SWIDTH 308 0
DWIDTH 3 0
BBX 2 7 1 0
BITMAP
80
80
80
80
80
80
C0
ENDCHAR
STARTCHAR 006D
ENCODING 109
SWIDTH 822 0
DWIDTH 8 0
BBX 7 5 1 0
BITMAP
FE
92
92
92
92
ENDCHAR
STARTCHAR 006E
ENCODING 110
SWIDTH 514 0
DWIDTH 5 0
BBX 4 5 1 0
BITMAP
F0
90
90
90
90
ENDCHAR
STARTCHAR 006F
ENCODING 111
SWIDTH 514 0
DWIDTH 5 0
BBX 5 5 0 0
BITMAP
78
48
C8
48
70
ENDCHAR
STARTCHAR 0070
ENCODING 112
SWIDTH 617 0
DWIDTH 6 0
BBX 5 7 1 -2
BITMAP
F0
90
98
90
F0
80
80
ENDCHAR
STARTCHAR 0071
ENCODING 113
SWIDTH 617 0
DWIDTH 6 0
BBX 5 7 0 -2
BITMAP
78
48
C8
48
78
08
08
ENDCHAR
STARTCHAR 0072
ENCODING 114
SWIDTH 308 0
DWIDTH 3 0
BBX 3 5 1 0
BITMAP
E0
80
80
80
80
ENDCHAR
STARTCHAR 0073
ENCODING 115
SWIDTH 411 0
DWIDTH 4 0
BBX 4 5 0 0
BITMAP
70
40
70
D0
70
ENDCHAR
STARTCHAR 0074
ENCODING 116
SWIDTH 411 0
DWIDTH 4 0
BBX 4 7 0 0
BITMAP
40
40
F0
40
40
40
70
ENDCHAR
STARTCHAR 0075
ENCODING 117
SWIDTH 514 0
DWIDTH 5 0
BBX 4 5 1 0
BITMAP
90
90
90
90
F0
ENDCHAR
STARTCHAR 0076
ENCODING 118
SWIDTH 514 0
DWIDTH 5 0
BBX 5 5 0 0
BITMAP
C8
58
50
70
30
ENDCHAR
STARTCHAR 0077
ENCODING 119
SWIDTH 822 0
DWIDTH 8 0
BBX 8 5 0 0
BITMAP
DB
5A
5A
7E
66
ENDCHAR
STARTCHAR 0078
ENCODING 120
SWIDTH 514 0
DWIDTH 5 0
BBX 4 5 1 0
BITMAP
B0
E0
60
E0
B0
ENDCHAR
STARTCHAR 0079
ENCODING 121
SWIDTH 514 0
DWIDTH 5 0
BBX 5 7 0 -2
BITMAP
C8
58
50
30
20
20
E0
ENDCHAR
STARTCHAR 007A
ENCODING 122
SWIDTH 411 0
DWIDTH 4 0
BBX 4 5 0 0
BITMAP
70
10
20
40
F0
ENDCHAR
STARTCHAR 007B
ENCODING 123
SWIDTH 411 0
DWIDTH 4 0
BBX 3 10 1 -2
BITMAP
60
40
C0
C0
C0
C0
C0
C0
C0
60
ENDCHAR
STARTCHAR 007C
ENCODING 124
SWIDTH 205 0
DWIDTH 2 0
BBX 1 11 1 -2
BITMAP
80
80
80
80
80
80
80
80
80
80
80
ENDCHAR
STARTCHAR 007D
ENCODING 125
SWIDTH 411 0
DWIDTH 4 0
BBX 2 10 1 -2
BITMAP
C0
40
40
40
40
40
40
40
40
C0
ENDCHAR
STARTCHAR 007E
ENCODING 126
SWIDTH 514 0
DWIDTH 5 0
BBX 4 1 1 3
BITMAP
F0
ENDCHAR
STARTCHAR 00A0
ENCODING 160
SWIDTH 205 0
DWIDTH 2 0
BBX 0 0 0 0
BITMAP
ENDCHAR
STARTCHAR 00A1
ENCODING 161
SWIDTH 205 0
DWIDTH 2 0
BBX 1 7 1 -2
BITMAP
80
80
00
80
80
80
80
ENDCHAR
STARTCHAR 00A2
ENCODING 162
SWIDTH 514 0
DWIDTH 5 0
BBX 5 5 0 0
BITMAP
78
68
E0
68
70
ENDCHAR
STARTCHAR 00A3
ENCODING 163
SWIDTH 617 0
DWIDTH 6 0
BBX 6 7 0 0
BITMAP
78
48
40
60
30
20
FC
ENDCHAR
STARTCHAR 00A4
ENCODING 164
SWIDTH 617 0
DWIDTH 6 0
BBX 5 5 1 1
BITMAP
F8
90
90
90
F0
ENDCHAR
STARTCHAR 00A5
ENCODING 165
SWIDTH 617 0
DWIDTH 6 0
BBX 6 7 0 0
BITMAP
CC
48
68
30
78
78
30
ENDCHAR
STARTCHAR 00A6
ENCODING 166
SWIDTH 205 0
DWIDTH 2 0
BBX 1 11 1 -2
BITMAP
80
80
80
80
80
00
00
80
80
80
80
ENDCHAR
STARTCHAR 00A7
ENCODING 167
SWIDTH 514 0
DWIDTH 5 0
BBX 5 7 0 0
BITMAP
70
58
70
C8
78
58
70
ENDCHAR
STARTCHAR 00A8
ENCODING 168
SWIDTH 411 0
DWIDTH 4 0
BBX 4 2 0 6
BITMAP
10
D0
ENDCHAR
STARTCHAR 00A9
ENCODING 169
SWIDTH 720 0
DWIDTH 7 0
BBX 7 7 0 0
BITMAP
3C
42
BE
A2
A6
5A
3C
ENDCHAR
STARTCHAR 00AA
ENCODING 170
SWIDTH 102 0
DWIDTH 1 0
BBX 2 1 0 4
BITMAP
C0
ENDCHAR
STARTCHAR 00AB
ENCODING 171
SWIDTH 617 0
DWIDTH 6 0
BBX 5 4 1 1
BITMAP
48
90
90
48
ENDCHAR
STARTCHAR 00AC
ENCODING 172
SWIDTH 617 0
DWIDTH 6 0
BBX 5 2 1 3
BITMAP
F8
08
ENDCHAR
STARTCHAR 00AD
ENCODING 173
SWIDTH 514 0
DWIDTH 5 0
BBX 4 2 1 2
BITMAP
F0
F0
ENDCHAR
STARTCHAR 00AE
ENCODING 174
SWIDTH 308 0
DWIDTH 3 0
BBX 3 3 0 4
BITMAP
40
E0
40
ENDCHAR
STARTCHAR 00AF
ENCODING 175
SWIDTH 308 0
DWIDTH 3 0
BBX 3 1 0 6
BITMAP
E0
ENDCHAR
STARTCHAR 00B0
ENCODING 176
SWIDTH 308 0
DWIDTH 3 0
BBX 2 3 1 6
BITMAP
80
C0
80
ENDCHAR
STARTCHAR 00B1
ENCODING 177
SWIDTH 514 0
DWIDTH 5 0
BBX 4 6 1 0
BITMAP
60
60
F0
60
00
F0
ENDCHAR
STARTCHAR 00B2
ENCODING 178
SWIDTH 205 0
DWIDTH 2 0
BBX 3 3 0 4
BITMAP
E0
40
C0
ENDCHAR
STARTCHAR 00B3
ENCODING 179
SWIDTH 308 0
DWIDTH 3 0
BBX 3 3 0 4
BITMAP
E0
60
E0
ENDCHAR
STARTCHAR 00B4
ENCODING 180
SWIDTH 205 0
DWIDTH 2 0
BBX 1 2 1 6
BITMAP
80
80
ENDCHAR
STARTCHAR 00B5
ENCODING 181
SWIDTH 617 0
DWIDTH 6 0
BBX 5 7 1 -2
BITMAP
90
90
90
B0
D8
80
80
ENDCHAR
STARTCHAR 00B6
ENCODING 182
SWIDTH 514 0
DWIDTH 5 0
BBX 5 7 0 0
BITMAP
78
F8
F8
78
18
18
18
ENDCHAR
STARTCHAR 00B7
ENCODING 183
SWIDTH 308 0
DWIDTH 3 0
BBX 1 1 1 3
BITMAP
80
ENDCHAR
STARTCHAR 00B8
ENCODING 184
SWIDTH 205 0
DWIDTH 2 0
BBX 2 2 0 -2
BITMAP
C0
40
ENDCHAR
STARTCHAR 00B9
ENCODING 185
SWIDTH 205 0
DWIDTH 2 0
BBX 3 3 0 4
BITMAP
C0
40
E0
ENDCHAR
STARTCHAR 00BA
ENCODING 186
SWIDTH 102 0
DWIDTH 1 0
BBX 2 1 0 4
BITMAP
C0
ENDCHAR
STARTCHAR 00BB
ENCODING 187
SWIDTH 617 0
DWIDTH 6 0
BBX 5 4 1 1
BITMAP
90
48
48
90
ENDCHAR
STARTCHAR 00BC
ENCODING 188
SWIDTH 822 0
DWIDTH 8 0
BBX 7 7 0 0
BITMAP
42
C4
4C
E8
16
16
22
ENDCHAR
STARTCHAR 00BD
ENCODING 189
SWIDTH 822 0
DWIDTH 8 0
BBX 8 7 0 0
BITMAP
42
C4
44
E8
1B
11
23
ENDCHAR
STARTCHAR 00BE
ENCODING 190
SWIDTH 822 0
DWIDTH 8 0
BBX 7 7 1 0
BITMAP
C4
48
58
D0
26
2A
46
ENDCHAR
STARTCHAR 00BF
ENCODING 191
SWIDTH 514 0
DWIDTH 5 0
BBX 5 7 0 -2
BITMAP
20
20
30
20
40
C8
78
ENDCHAR
STARTCHAR 00C0
ENCODING 192
SWIDTH 617 0
DWIDTH 6 0
BBX 6 9 0 0
BITMAP
20
00
10
30
28
68
78
44
C4
ENDCHAR
STARTCHAR 00C1
ENCODING 193
SWIDTH 617 0
DWIDTH 6 0
BBX 6 9 0 0
BITMAP
18
00
10
30
28
68
78
44
C4
ENDCHAR
STARTCHAR 00C2
ENCODING 194
SWIDTH 617 0
DWIDTH 6 0
BBX 6 9 0 0
BITMAP
30
68
10
30
28
68
78
44
C4
ENDCHAR
STARTCHAR 00C3
ENCODING 195
SWIDTH 617 0
DWIDTH 6 0
BBX 6 9 0 0
BITMAP
38
00
10
30
28
68
78
44
C4
ENDCHAR
STARTCHAR 00C4
ENCODING 196
SWIDTH 617 0
DWIDTH 6 0
BBX 6 9 0 0
BITMAP
68
00
10
30
28
68
78
44
C4
ENDCHAR
STARTCHAR 00C5
ENCODING 197
SWIDTH 617 0
DWIDTH 6 0
BBX 6 9 0 0
BITMAP
30
00
10
30
28
68
78
44
C4
ENDCHAR
STARTCHAR 00C6
ENCODING 198
SWIDTH 925 0
DWIDTH 9 0
BBX 9 7 0 0
BITMAP
1F80
1C00
3C00
2F00
7C00
4C00
CF80
ENDCHAR
STARTCHAR 00C7
ENCODING 199
SWIDTH 617 0
DWIDTH 6 0
BBX 6 9 0 -2
BITMAP
38
6C
44
C0
40
44
38
10
18
ENDCHAR
STARTCHAR 00C8
ENCODING 200
SWIDTH 514 0
DWIDTH 5 0
BBX 4 9 1 0
BITMAP
C0
00
F0
80
80
F0
80
80
F0
ENDCHAR
STARTCHAR 00C9
ENCODING 201
SWIDTH 514 0
DWIDTH 5 0
BBX 4 9 1 0
BITMAP
20
00
F0
80
80
F0
80
80
F0
ENDCHAR
STARTCHAR 00CA
ENCODING 202
SWIDTH 514 0
DWIDTH 5 0
BBX 4 9 1 0
BITMAP
60
B0
F0
80
80
F0
80
80
F0
ENDCHAR
STARTCHAR 00CB
ENCODING 203
SWIDTH 514 0
DWIDTH 5 0
BBX 4 9 1 0
BITMAP
B0
00
F0
80
80
F0
80
80
F0
ENDCHAR
STARTCHAR 00CC
ENCODING 204
SWIDTH 205 0
DWIDTH 2 0
BBX 2 9 0 0
BITMAP
80
00
40
40
40
40
40
40
40
ENDCHAR
STARTCHAR 00CD
ENCODING 205
SWIDTH 205 0
DWIDTH 2 0
BBX 2 9 1 0
BITMAP
C0
00
80
80
80
80
80
80
80
ENDCHAR
STARTCHAR 00CE
ENCODING 206
SWIDTH 205 0
DWIDTH 2 0
BBX 3 9 0 0
BITMAP
C0
A0
40
40
40
40
40
40
40
ENDCHAR
STARTCHAR 00CF
ENCODING 207
SWIDTH 205 0
DWIDTH 2 0
BBX 4 9 -1 0
BITMAP
D0
00
20
20
20
20
20
20
20
ENDCHAR
STARTCHAR 00D0
ENCODING 208
SWIDTH 617 0
DWIDTH 6 0
BBX 7 7 0 0
BITMAP
78
4C
44
E6
44
4C
78
ENDCHAR
STARTCHAR 00D1
ENCODING 209
SWIDTH 617 0
DWIDTH 6 0
BBX 5 9 1 0
BITMAP
70
00
88
C8
C8
A8
B8
98
98
ENDCHAR
STARTCHAR 00D2
ENCODING 210
SWIDTH 720 0
DWIDTH 7 0
BBX 7 9 0 0
BITMAP
30
00
38
6C
46
C6
C6
64
38
ENDCHAR
STARTCHAR 00D3
ENCODING 211
SWIDTH 720 0
DWIDTH 7 0
BBX 7 9 0 0
BITMAP
18
00
38
6C
46
C6
C6
64
38
ENDCHAR
STARTCHAR 00D4
ENCODING 212
SWIDTH 720 0
DWIDTH 7 0
BBX 7 9 0 0
BITMAP
10
28
38
6C
46
C6
C6
64
38
ENDCHAR
STARTCHAR 00D5
ENCODING 213
SWIDTH 720 0
DWIDTH 7 0
BBX 7 9 0 0
BITMAP
38
00
38
6C
46
C6
C6
64
38
ENDCHAR
STARTCHAR 00D6
ENCODING 214
SWIDTH 720 0
DWIDTH 7 0
BBX 7 9 0 0
BITMAP
2C
00
38
6C
46
C6
C6
64
38
ENDCHAR
STARTCHAR 00D7
ENCODING 215
SWIDTH 514 0
DWIDTH 5 0
BBX 3 4 1 1
BITMAP
A0
60
E0
80
ENDCHAR
STARTCHAR 00D8
ENCODING 216
SWIDTH 720 0
DWIDTH 7 0
BBX 7 7 0 0
BITMAP
3C
6C
4E
D6
76
64
78
ENDCHAR
STARTCHAR 00D9
ENCODING 217
SWIDTH 617 0
DWIDTH 6 0
BBX 5 9 1 0
BITMAP
40
00
88
88
88
88
88
98
F0
ENDCHAR
STARTCHAR 00DA
ENCODING 218
SWIDTH 617 0
DWIDTH 6 0
BBX 5 9 1 0
BITMAP
30
00
88
88
88
88
88
98
F0
ENDCHAR
STARTCHAR 00DB
ENCODING 219
SWIDTH 617 0
DWIDTH 6 0
BBX 5 9 1 0
BITMAP
60
50
88
88
88
88
88
98
F0
ENDCHAR
STARTCHAR 00DC
ENCODING 220
SWIDTH 617 0
DWIDTH 6 0
BBX 5 9 1 0
BITMAP
D0
00
88
88
88
88
88
98
F0
ENDCHAR
STARTCHAR 00DD
ENCODING 221
SWIDTH 617 0
DWIDTH 6 0
BBX 6 9 0 0
BITMAP
10
00
CC
48
68
30
30
30
30
ENDCHAR
STARTCHAR 00DE
ENCODING 222
SWIDTH 514 0
DWIDTH 5 0
BBX 5 7 1 0
BITMAP
80
E0
B0
98
90
F0
80
ENDCHAR
STARTCHAR 00DF
ENCODING 223
SWIDTH 514 0
DWIDTH 5 0
BBX 4 7 1 0
BITMAP
E0
90
90
E0
90
90
F0
ENDCHAR
STARTCHAR 00E0
ENCODING 224
SWIDTH 617 0
DWIDTH 6 0
BBX 5 8 0 0
BITMAP
60
20
00
78
C8
C8
C8
78
ENDCHAR
STARTCHAR 00E1
ENCODING 225
SWIDTH 617 0
DWIDTH 6 0
BBX 5 8 0 0
BITMAP
18
10
00
78
C8
C8
C8
78
ENDCHAR
STARTCHAR 00E2
ENCODING 226
SWIDTH 617 0
DWIDTH 6 0
BBX 5 7 0 0
BITMAP
30
00
78
C8
C8
C8
78
ENDCHAR
STARTCHAR 00E3
ENCODING 227
SWIDTH 617 0
DWIDTH 6 0
BBX 5 7 0 0
BITMAP
70
00
78
C8
C8
C8
78
ENDCHAR
STARTCHAR 00E4
ENCODING 228
SWIDTH 617 0
DWIDTH 6 0
BBX 5 7 0 1
BITMAP
68
00
78
C8
C8
C8
78
ENDCHAR
STARTCHAR 00E5
ENCODING 229
SWIDTH 617 0
DWIDTH 6 0
BBX 5 8 0 0
BITMAP
30
30
00
78
C8
C8
C8
78
ENDCHAR
STARTCHAR 00E6
ENCODING 230
SWIDTH 822 0
DWIDTH 8 0
BBX 8 5 0 0
BITMAP
7F
49
7F
C9
77
ENDCHAR
STARTCHAR 00E7
ENCODING 231
SWIDTH 514 0
DWIDTH 5 0
BBX 5 7 0 -2
BITMAP
78
48
C0
48
70
30
10
ENDCHAR
STARTCHAR 00E8
ENCODING 232
SWIDTH 514 0
DWIDTH 5 0
BBX 5 8 0 0
BITMAP
60
20
00
78
48
F8
48
70
ENDCHAR
STARTCHAR 00E9
ENCODING 233
SWIDTH 514 0
DWIDTH 5 0
BBX 5 8 0 0
BITMAP
10
10
00
78
48
F8
48
70
ENDCHAR
STARTCHAR 00EA
ENCODING 234
SWIDTH 514 0
DWIDTH 5 0
BBX 5 7 0 0
BITMAP
30
40
78
48
F8
48
70
ENDCHAR
STARTCHAR 00EB
ENCODING 235
SWIDTH 514 0
DWIDTH 5 0
BBX 5 7 0 1
BITMAP
58
00
78
48
F8
48
70
ENDCHAR
STARTCHAR 00EC
ENCODING 236
SWIDTH 205 0
DWIDTH 2 0
BBX 2 8 0 0
BITMAP
80
C0
00
40
40
40
40
40
ENDCHAR
STARTCHAR 00ED
ENCODING 237
SWIDTH 205 0
DWIDTH 2 0
BBX 2 8 1 0
BITMAP
40
80
00
80
80
80
80
80
ENDCHAR
STARTCHAR 00EE
ENCODING 238
SWIDTH 205 0
DWIDTH 2 0
BBX 3 7 0 0
BITMAP
E0
00
40
40
40
40
40
ENDCHAR
STARTCHAR 00EF
ENCODING 239
SWIDTH 205 0
DWIDTH 2 0
BBX 3 7 0 1
BITMAP
A0
00
40
40
40
40
40
ENDCHAR
STARTCHAR 00F0
ENCODING 240
SWIDTH 514 0
DWIDTH 5 0
BBX 5 8 0 0
BITMAP
38
18
08
78
C8
C8
C8
70
ENDCHAR
STARTCHAR 00F1
ENCODING 241
SWIDTH 514 0
DWIDTH 5 0
BBX 4 7 1 0
BITMAP
E0
00
F0
90
90
90
90
ENDCHAR
STARTCHAR 00F2
ENCODING 242
SWIDTH 514 0
DWIDTH 5 0
BBX 5 8 0 0
BITMAP
60
20
00
78
48
C8
48
70
ENDCHAR
STARTCHAR 00F3
ENCODING 243
SWIDTH 514 0
DWIDTH 5 0
BBX 5 8 0 0
BITMAP
10
10
00
78
48
C8
48
70
ENDCHAR
STARTCHAR 00F4
ENCODING 244
SWIDTH 514 0
DWIDTH 5 0
BBX 5 7 0 0
BITMAP
30
40
78
48
C8
48
70
ENDCHAR
STARTCHAR 00F5
ENCODING 245
SWIDTH 514 0
DWIDTH 5 0
BBX 5 7 0 0
BITMAP
70
00
78
48
C8
48
70
ENDCHAR
STARTCHAR 00F6
ENCODING 246
SWIDTH 514 0
DWIDTH 5 0
BBX 5 7 0 1
BITMAP
58
00
78
48
C8
48
70
ENDCHAR
STARTCHAR 00F7
ENCODING 247
SWIDTH 514 0
DWIDTH 5 0
BBX 4 6 1 0
BITMAP
40
40
F0
F0
40
40
ENDCHAR
STARTCHAR 00F8
ENCODING 248
SWIDTH 514 0
DWIDTH 5 0
BBX 5 6 0 0
BITMAP
08
78
58
E8
68
70
ENDCHAR
STARTCHAR 00F9
ENCODING 249
SWIDTH 514 0
DWIDTH 5 0
BBX 4 8 1 0
BITMAP
80
40
00
90
90
90
90
F0
ENDCHAR
STARTCHAR 00FA
ENCODING 250
SWIDTH 514 0
DWIDTH 5 0
BBX 4 8 1 0
BITMAP
20
20
00
90
90
90
90
F0
ENDCHAR
STARTCHAR 00FB
ENCODING 251
SWIDTH 514 0
DWIDTH 5 0
BBX 4 7 1 0
BITMAP
60
80
90
90
90
90
F0
ENDCHAR
STARTCHAR 00FC
ENCODING 252
SWIDTH 514 0
DWIDTH 5 0
BBX 4 7 1 1
BITMAP
B0
00
90
90
90
90
F0
ENDCHAR
STARTCHAR 00FD
ENCODING 253
SWIDTH 514 0
DWIDTH 5 0
BBX 5 10 0 -2
BITMAP
10
10
00
C8
58
50
30
20
20
E0
ENDCHAR
STARTCHAR 00FE
ENCODING 254
SWIDTH 617 0
DWIDTH 6 0
BBX 5 9 1 -2
BITMAP
80
80
F0
90
98
90
F0
80
80
ENDCHAR
STARTCHAR 00FF
ENCODING 255
SWIDTH 514 0
DWIDTH 5 0
BBX 5 10 0 -2
BITMAP
40
58
00
C8
58
50
30
20
20
E0
ENDCHAR
STARTCHAR 0100
ENCODING 256
SWIDTH 617 0
DWIDTH 6 0
BBX 6 8 0 0
BITMAP
30
10
30
28
68
78
44
C4
ENDCHAR
STARTCHAR 0101
ENCODING 257
SWIDTH 617 0
DWIDTH 6 0
BBX 5 7 0 0
BITMAP
78
00
78
C8
C8
C8
78
ENDCHAR
STARTCHAR 0102
ENCODING 258
SWIDTH 617 0
DWIDTH 6 0
BBX 6 9 0 0
BITMAP
28
10
10
30
28
68
78
44
C4
ENDCHAR
STARTCHAR 0103
ENCODING 259
SWIDTH 617 0
DWIDTH 6 0
BBX 5 7 0 0
BITMAP
30
00
78
C8
C8
C8
78
ENDCHAR
STARTCHAR 0104
ENCODING 260
SWIDTH 617 0
DWIDTH 6 0
BBX 6 9 0 -2
BITMAP
10
30
28
68
78
44
C4
04
04
ENDCHAR
STARTCHAR 0105
ENCODING 261
SWIDTH 617 0
DWIDTH 6 0
BBX 6 7 0 -2
BITMAP
78
C8
C8
C8
78
08
0C
ENDCHAR
STARTCHAR 0106
ENCODING 262
SWIDTH 617 0
DWIDTH 6 0
BBX 6 9 0 0
BITMAP
18
00
38
6C
44
C0
40
44
38
ENDCHAR
STARTCHAR 0107
ENCODING 263
SWIDTH 514 0
DWIDTH 5 0
BBX 5 8 0 0
BITMAP
10
10
00
78
48
C0
48
70
ENDCHAR
STARTCHAR 010A
ENCODING 266
SWIDTH 617 0
DWIDTH 6 0
BBX 6 9 0 0
BITMAP
10
00
38
6C
44
C0
40
44
38
ENDCHAR
STARTCHAR 010B
ENCODING 267
SWIDTH 514 0
DWIDTH 5 0
BBX 5 7 0 1
BITMAP
30
00
78
48
C0
48
70
ENDCHAR
STARTCHAR 010C
ENCODING 268
SWIDTH 617 0
DWIDTH 6 0
BBX 6 9 0 0
BITMAP
28
10
38
6C
44
C0
40
44
38
ENDCHAR
STARTCHAR 010D
ENCODING 269
SWIDTH 514 0
DWIDTH 5 0
BBX 5 7 0 0
BITMAP
70
00
78
48
C0
48
70
ENDCHAR
STARTCHAR 010E
ENCODING 270
SWIDTH 617 0
DWIDTH 6 0
BBX 5 9 1 0
BITMAP
70
20
F0
98
88
88
88
98
F0
ENDCHAR
STARTCHAR 010F
ENCODING 271
SWIDTH 720 0
DWIDTH 7 0
BBX 7 8 0 0
BITMAP
02
0A
0A
78
C8
C8
48
78
ENDCHAR
STARTCHAR 0110
ENCODING 272
SWIDTH 617 0
DWIDTH 6 0
BBX 7 7 0 0
BITMAP
78
4C
44
E6
44
4C
78
ENDCHAR
STARTCHAR 0111
ENCODING 273
SWIDTH 617 0
DWIDTH 6 0
BBX 6 7 0 0
BITMAP
1C
08
78
C8
C8
48
78
ENDCHAR
STARTCHAR 0112
ENCODING 274
SWIDTH 514 0
DWIDTH 5 0
BBX 4 8 1 0
BITMAP
60
F0
80
80
F0
80
80
F0
ENDCHAR
STARTCHAR 0113
ENCODING 275
SWIDTH 514 0
DWIDTH 5 0
BBX 5 7 0 0
BITMAP
70
00
78
48
F8
48
70
ENDCHAR
STARTCHAR 0116
ENCODING 278
SWIDTH 514 0
DWIDTH 5 0
BBX 4 9 1 0
BITMAP
60
00
F0
80
80
F0
80
80
F0
ENDCHAR
STARTCHAR 0117
ENCODING 279
SWIDTH 514 0
DWIDTH 5 0
BBX 5 7 0 1
BITMAP
30
00
78
48
F8
48
70
ENDCHAR
STARTCHAR 0118
ENCODING 280
SWIDTH 514 0
DWIDTH 5 0
BBX 4 9 1 -2
BITMAP
F0
80
80
F0
80
80
F0
10
10
ENDCHAR
STARTCHAR 0119
ENCODING 281
SWIDTH 514 0
DWIDTH 5 0
BBX 5 7 0 -2
BITMAP
78
48
F8
48
70
20
30
ENDCHAR
STARTCHAR 011A
ENCODING 282
SWIDTH 514 0
DWIDTH 5 0
BBX 4 9 1 0
BITMAP
E0
40
F0
80
80
F0
80
80
F0
ENDCHAR
STARTCHAR 011B
ENCODING 283
SWIDTH 514 0
DWIDTH 5 0
BBX 5 7 0 0
BITMAP
70
00
78
48
F8
48
70
ENDCHAR
STARTCHAR 011E
ENCODING 286
SWIDTH 617 0
DWIDTH 6 0
BBX 6 9 0 0
BITMAP
28
10
38
6C
40
CC
44
44
3C
ENDCHAR
STARTCHAR 011F
ENCODING 287
SWIDTH 514 0
DWIDTH 5 0
BBX 5 9 0 -2
BITMAP
30
00
78
C8
C8
48
78
08
38
ENDCHAR
STARTCHAR 0120
ENCODING 288
SWIDTH 617 0
DWIDTH 6 0
BBX 6 9 0 0
BITMAP
10
00
38
6C
40
CC
44
44
3C
ENDCHAR
STARTCHAR 0121
ENCODING 289
SWIDTH 514 0
DWIDTH 5 0
BBX 5 9 0 -1
BITMAP
30
00
78
C8
C8
48
78
08
38
ENDCHAR
STARTCHAR 0126
ENCODING 294
SWIDTH 617 0
DWIDTH 6 0
BBX 7 7 0 0
BITMAP
44
FE
44
7C
44
44
44
ENDCHAR
STARTCHAR 0127
ENCODING 295
SWIDTH 514 0
DWIDTH 5 0
BBX 5 7 0 0
BITMAP
E0
40
78
48
48
48
48
ENDCHAR
STARTCHAR 0128
ENCODING 296
SWIDTH 205 0
DWIDTH 2 0
BBX 3 9 0 0
BITMAP
E0
00
40
40
40
40
40
40
40
ENDCHAR
STARTCHAR 0129
ENCODING 297
SWIDTH 205 0
DWIDTH 2 0
BBX 3 7 0 0
BITMAP
E0
00
40
40
40
40
40
ENDCHAR
STARTCHAR 012A
ENCODING 298
SWIDTH 205 0
DWIDTH 2 0
BBX 2 8 0 0
BITMAP
C0
40
40
40
40
40
40
40
ENDCHAR
STARTCHAR 012B
ENCODING 299
SWIDTH 205 0
DWIDTH 2 0
BBX 3 7 0 0
BITMAP
E0
00
40
40
40
40
40
ENDCHAR
STARTCHAR 012E
ENCODING 302
SWIDTH 205 0
DWIDTH 2 0
BBX 1 9 1 -2
BITMAP
80
80
80
80
80
80
80
80
80
ENDCHAR
STARTCHAR 012F
ENCODING 303
SWIDTH 205 0
DWIDTH 2 0
BBX 1 9 1 -1
BITMAP
80
00
80
80
80
80
80
80
80
ENDCHAR
STARTCHAR 0130
ENCODING 304
SWIDTH 205 0
DWIDTH 2 0
BBX 1 9 1 0
BITMAP
80
00
80
80
80
80
80
80
80
ENDCHAR
STARTCHAR 0131
ENCODING 305
SWIDTH 205 0
DWIDTH 2 0
BBX 1 5 1 0
BITMAP
80
80
80
80
80
ENDCHAR
STARTCHAR 0139
ENCODING 313
SWIDTH 514 0
DWIDTH 5 0
BBX 4 9 1 0
BITMAP
C0
00
80
80
80
80
80
80
F0
ENDCHAR
STARTCHAR 013A
ENCODING 314
SWIDTH 308 0
DWIDTH 3 0
BBX 2 10 1 0
BITMAP
40
80
00
80
80
80
80
80
80
C0
ENDCHAR
STARTCHAR 013D
ENCODING 317
SWIDTH 514 0
DWIDTH 5 0
BBX 5 9 0 0
BITMAP
E0
40
40
40
40
40
40
40
78
ENDCHAR
STARTCHAR 013E
ENCODING 318
SWIDTH 411 0
DWIDTH 4 0
BBX 3 8 1 0
BITMAP
60
A0
A0
80
80
80
80
C0
ENDCHAR
STARTCHAR 0143
ENCODING 323
SWIDTH 617 0
DWIDTH 6 0
BBX 5 9 1 0
BITMAP
30
00
88
C8
C8
A8
B8
98
98
ENDCHAR
STARTCHAR 0144
ENCODING 324
SWIDTH 514 0
DWIDTH 5 0
BBX 4 8 1 0
BITMAP
30
20
00
F0
90
90
90
90
ENDCHAR
STARTCHAR 0147
ENCODING 327
SWIDTH 617 0
DWIDTH 6 0
BBX 5 9 1 0
BITMAP
50
20
88
C8
C8
A8
B8
98
98
ENDCHAR
STARTCHAR 0148
ENCODING 328
SWIDTH 514 0
DWIDTH 5 0
BBX 4 7 1 0
BITMAP
60
00
F0
90
90
90
90
ENDCHAR
STARTCHAR 014C
ENCODING 332
SWIDTH 720 0
DWIDTH 7 0
BBX 7 8 0 0
BITMAP
38
38
6C
46
C6
C6
64
38
ENDCHAR
STARTCHAR 014D
ENCODING 333
SWIDTH 514 0
DWIDTH 5 0
BBX 5 7 0 0
BITMAP
70
00
78
48
C8
48
70
ENDCHAR
STARTCHAR 0152
ENCODING 338
SWIDTH 925 0
DWIDTH 9 0
BBX 9 7 0 0
BITMAP
3F80
6C00
CC00
CF80
CC00
6C00
3F80
ENDCHAR
STARTCHAR 0153
ENCODING 339
SWIDTH 925 0
DWIDTH 9 0
BBX 9 5 0 0
BITMAP
7700
4980
CF80
4D80
7700
ENDCHAR
STARTCHAR 0154
ENCODING 340
SWIDTH 514 0
DWIDTH 5 0
BBX 5 9 1 0
BITMAP
20
00
E0
90
98
F0
E0
B0
90
ENDCHAR
STARTCHAR 0155
ENCODING 341
SWIDTH 308 0
DWIDTH 3 0
BBX 3 8 1 0
BITMAP
60
40
00
E0
80
80
80
80
ENDCHAR
STARTCHAR 0158
ENCODING 344
SWIDTH 514 0
DWIDTH 5 0
BBX 5 9 1 0
BITMAP
E0
40
E0
90
98
F0
E0
B0
90
ENDCHAR
STARTCHAR 0159
ENCODING 345
SWIDTH 308 0
DWIDTH 3 0
BBX 3 7 1 0
BITMAP
C0
00
E0
80
80
80
80
ENDCHAR
STARTCHAR 015A
ENCODING 346
SWIDTH 514 0
DWIDTH 5 0
BBX 4 9 1 0
BITMAP
30
00
F0
90
80
F0
10
90
F0
ENDCHAR
STARTCHAR 015B
ENCODING 347
SWIDTH 411 0
DWIDTH 4 0
BBX 4 8 0 0
BITMAP
10
20
00
70
40
70
D0
70
ENDCHAR
STARTCHAR 015E
ENCODING 350
SWIDTH 514 0
DWIDTH 5 0
BBX 4 9 1 -2
BITMAP
F0
90
80
F0
10
90
F0
60
20
ENDCHAR
STARTCHAR 015F
ENCODING 351
SWIDTH 411 0
DWIDTH 4 0
BBX 4 7 0 -2
BITMAP
70
40
70
D0
70
20
10
ENDCHAR
STARTCHAR 0160
ENCODING 352
SWIDTH 514 0
DWIDTH 5 0
BBX 4 9 1 0
BITMAP
50
20
F0
90
80
F0
10
90
F0
ENDCHAR
STARTCHAR 0161
ENCODING 353
SWIDTH 411 0
DWIDTH 4 0
BBX 4 7 0 0
BITMAP
70
00
70
40
70
D0
70
ENDCHAR
STARTCHAR 0162
ENCODING 354
SWIDTH 514 0
DWIDTH 5 0
BBX 5 9 0 -2
BITMAP
F8
30
30
30
30
30
30
30
10
ENDCHAR
STARTCHAR 0163
ENCODING 355
SWIDTH 411 0
DWIDTH 4 0
BBX 4 9 0 -2
BITMAP
40
40
F0
40
40
40
70
20
30
ENDCHAR
STARTCHAR 0164
ENCODING 356
SWIDTH 514 0
DWIDTH 5 0
BBX 5 9 0 0
BITMAP
70
20
F8
30
30
30
30
30
30
ENDCHAR
STARTCHAR 0165
ENCODING 357
SWIDTH 514 0
DWIDTH 5 0
BBX 5 8 0 0
BITMAP
08
48
48
F0
40
40
40
70
ENDCHAR
STARTCHAR 0166
ENCODING 358
SWIDTH 514 0
DWIDTH 5 0
BBX 5 7 0 0
BITMAP
F8
30
30
78
30
30
30
ENDCHAR
STARTCHAR 0167
ENCODING 359
SWIDTH 411 0
DWIDTH 4 0
BBX 4 7 0 0
BITMAP
40
40
F0
40
F0
40
70
ENDCHAR
STARTCHAR 0168
ENCODING 360
SWIDTH 617 0
DWIDTH 6 0
BBX 5 9 1 0
BITMAP
70
00
88
88
88
88
88
98
F0
ENDCHAR
STARTCHAR 0169
ENCODING 361
SWIDTH 514 0
DWIDTH 5 0
BBX 4 7 1 0
BITMAP
E0
00
90
90
90
90
F0
ENDCHAR
STARTCHAR 016A
ENCODING 362
SWIDTH 617 0
DWIDTH 6 0
BBX 5 8 1 0
BITMAP
60
88
88
88
88
88
98
F0
ENDCHAR
STARTCHAR 016B
ENCODING 363
SWIDTH 514 0
DWIDTH 5 0
BBX 4 7 1 0
BITMAP
E0
00
90
90
90
90
F0
ENDCHAR
STARTCHAR 016E
ENCODING 366
SWIDTH 617 0
DWIDTH 6 0
BBX 5 9 1 0
BITMAP
60
00
88
88
88
88
88
98
F0
ENDCHAR
STARTCHAR 016F
ENCODING 367
SWIDTH 514 0
DWIDTH 5 0
BBX 4 8 1 0
BITMAP
40
60
00
90
90
90
90
F0
ENDCHAR
STARTCHAR 0172
ENCODING 370
SWIDTH 617 0
DWIDTH 6 0
BBX 5 9 1 -2
BITMAP
88
88
88
88
88
98
F0
40
20
ENDCHAR
STARTCHAR 0173
ENCODING 371
SWIDTH 514 0
DWIDTH 5 0
BBX 5 7 1 -2
BITMAP
90
90
90
90
F0
10
18
ENDCHAR
STARTCHAR 0174
ENCODING 372
SWIDTH 925 0
DWIDTH 9 0
BBX 10 9 0 0
BITMAP
0C00
1600
CCC0
CC80
4C80
5D80
5700
7300
3300
ENDCHAR
STARTCHAR 0175
ENCODING 373
SWIDTH 822 0
DWIDTH 8 0
BBX 8 7 0 0
BITMAP
18
00
DB
5A
5A
7E
66
ENDCHAR
STARTCHAR 0176
ENCODING 374
SWIDTH 617 0
DWIDTH 6 0
BBX 6 9 0 0
BITMAP
30
68
CC
48
68
30
30
30
30
ENDCHAR
STARTCHAR 0177
ENCODING 375
SWIDTH 514 0
DWIDTH 5 0
BBX 5 9 0 -2
BITMAP
30
40
C8
58
50
30
20
20
E0
ENDCHAR
STARTCHAR 0178
ENCODING 376
SWIDTH 617 0
DWIDTH 6 0
BBX 6 9 0 0
BITMAP
68
00
CC
48
68
30
30
30
30
ENDCHAR
STARTCHAR 0179
ENCODING 377
SWIDTH 617 0
DWIDTH 6 0
BBX 6 9 0 0
BITMAP
10
00
FC
08
18
30
60
40
FC
ENDCHAR
STARTCHAR 017A
ENCODING 378
SWIDTH 411 0
DWIDTH 4 0
BBX 4 8 0 0
BITMAP
10
20
00
70
10
20
40
F0
ENDCHAR
STARTCHAR 017B
ENCODING 379
SWIDTH 617 0
DWIDTH 6 0
BBX 6 9 0 0
BITMAP
30
00
FC
08
18
30
60
40
FC
ENDCHAR
STARTCHAR 017C
ENCODING 380
SWIDTH 411 0
DWIDTH 4 0
BBX 4 8 0 0
BITMAP
20
20
00
70
10
20
40
F0
ENDCHAR
STARTCHAR 017D
ENCODING 381
SWIDTH 617 0
DWIDTH 6 0
BBX 6 9 0 0
BITMAP
38
30
FC
08
18
30
60
40
FC
ENDCHAR
STARTCHAR 017E
ENCODING 382
SWIDTH 411 0
DWIDTH 4 0
BBX 4 7 0 0
BITMAP
70
00
70
10
20
40
F0
ENDCHAR
STARTCHAR 01A0
ENCODING 416
SWIDTH 720 0
DWIDTH 7 0
BBX 7 8 0 0
BITMAP
04
3C
6C
46
C6
C6
64
38
ENDCHAR
STARTCHAR 01A1
ENCODING 417
SWIDTH 514 0
DWIDTH 5 0
BBX 6 6 0 0
BITMAP
04
78
48
C8
48
70
ENDCHAR
STARTCHAR 01AF
ENCODING 431
SWIDTH 617 0
DWIDTH 6 0
BBX 6 8 1 0
BITMAP
04
8C
88
88
88
88
98
F0
ENDCHAR
STARTCHAR 01B0
ENCODING 432
SWIDTH 514 0
DWIDTH 5 0
BBX 5 6 1 0
BITMAP
08
90
90
90
90
F0
ENDCHAR
STARTCHAR 02C6
ENCODING 710
SWIDTH 411 0
DWIDTH 4 0
BBX 3 1 1 6
BITMAP
E0
ENDCHAR
STARTCHAR 02C7
ENCODING 711
SWIDTH 411 0
DWIDTH 4 0
BBX 3 1 1 6
BITMAP
E0
ENDCHAR
STARTCHAR 02D8
ENCODING 728
SWIDTH 411 0
DWIDTH 4 0
BBX 3 1 1 6
BITMAP
E0
ENDCHAR
STARTCHAR 02D9
ENCODING 729
SWIDTH 205 0
DWIDTH 2 0
BBX 2 1 0 7
BITMAP
C0
ENDCHAR
STARTCHAR 02DA
ENCODING 730
SWIDTH 205 0
DWIDTH 2 0
BBX 2 2 0 6
BITMAP
40
C0
ENDCHAR
STARTCHAR 02DB
ENCODING 731
SWIDTH 205 0
DWIDTH 2 0
BBX 2 2 0 -2
BITMAP
80
C0
ENDCHAR
STARTCHAR 02DC
ENCODING 732
SWIDTH 308 0
DWIDTH 3 0
BBX 3 1 0 6
BITMAP
E0
ENDCHAR
STARTCHAR 0300
ENCODING 768
SWIDTH 0 0
DWIDTH 0 0
BBX 2 2 -2 6
BITMAP
80
C0
ENDCHAR
STARTCHAR 0301
ENCODING 769
SWIDTH 0 0
DWIDTH 0 0
BBX 2 2 -2 6
BITMAP
40
80
ENDCHAR
STARTCHAR 0302
ENCODING 770
SWIDTH 0 0
DWIDTH 0 0
BBX 3 1 -3 6
BITMAP
E0
ENDCHAR
STARTCHAR 0303
ENCODING 771
SWIDTH 0 0
DWIDTH 0 0
BBX 3 1 -3 6
BITMAP
E0
ENDCHAR
STARTCHAR 0304
ENCODING 772
SWIDTH 0 0
DWIDTH 0 0
BBX 3 1 -4 6
BITMAP
E0
ENDCHAR
STARTCHAR 0306
ENCODING 774
SWIDTH 0 0
DWIDTH 0 0
BBX 3 1 -3 6
BITMAP
E0
ENDCHAR
STARTCHAR 0307
ENCODING 775
SWIDTH 0 0
DWIDTH 0 0
BBX 1 1 -2 7
BITMAP
80
ENDCHAR
STARTCHAR 0308
ENCODING 776
SWIDTH 0 0
DWIDTH 0 0
BBX 3 1 -4 7
BITMAP
A0
ENDCHAR
STARTCHAR 0309
ENCODING 777
SWIDTH 0 0
DWIDTH 0 0
BBX 3 2 -3 6
BITMAP
E0
60
ENDCHAR
STARTCHAR 030A
ENCODING 778
SWIDTH 0 0
DWIDTH 0 0
BBX 1 2 -2 6
BITMAP
80
80
ENDCHAR
STARTCHAR 030C
ENCODING 780
SWIDTH 0 0
DWIDTH 0 0
BBX 3 1 -4 6
BITMAP
E0
ENDCHAR
STARTCHAR 031B
ENCODING 795
SWIDTH 0 0
DWIDTH 0 0
BBX 2 2 -2 6
BITMAP
40
C0
ENDCHAR
STARTCHAR 0323
ENCODING 803
SWIDTH 0 0
DWIDTH 0 0
BBX 1 1 -1 -2
BITMAP
80
ENDCHAR
STARTCHAR 0327
ENCODING 807
SWIDTH 0 0
DWIDTH 0 0
BBX 2 2 -2 -2
BITMAP
80
C0
ENDCHAR
STARTCHAR 0328
ENCODING 808
SWIDTH 0 0
DWIDTH 0 0
BBX 2 2 -2 -2
BITMAP
80
C0
ENDCHAR
STARTCHAR 1E80
ENCODING 7808
SWIDTH 925 0
DWIDTH 9 0
BBX 10 9 0 0
BITMAP
0800
0000
CCC0
CC80
4C80
5D80
5700
7300
3300
ENDCHAR
STARTCHAR 1E81
ENCODING 7809
SWIDTH 822 0
DWIDTH 8 0
BBX 8 8 0 0
BITMAP
30
10
00
DB
5A
5A
7E
66
ENDCHAR
STARTCHAR 1E82
ENCODING 7810
SWIDTH 925 0
DWIDTH 9 0
BBX 10 9 0 0
BITMAP
0400
0000
CCC0
CC80
4C80
5D80
5700
7300
3300
ENDCHAR
STARTCHAR 1E83
ENCODING 7811
SWIDTH 822 0
DWIDTH 8 0
BBX 8 8 0 0
BITMAP
0C
08
00
DB
5A
5A
7E
66
ENDCHAR
STARTCHAR 1E84
ENCODING 7812
SWIDTH 925 0
DWIDTH 9 0
BBX 10 9 0 0
BITMAP
1600
0000
CCC0
CC80
4C80
5D80
5700
7300
3300
ENDCHAR
STARTCHAR 1E85
ENCODING 7813
SWIDTH 822 0
DWIDTH 8 0
BBX 8 7 0 1
BITMAP
34
00
DB
5A
5A
7E
66
ENDCHAR
STARTCHAR 1EA0
ENCODING 7840
SWIDTH 617 0
DWIDTH 6 0
BBX 6 9 0 -2
BITMAP
10
30
28
68
78
44
C4
00
10
ENDCHAR
STARTCHAR 1EA1
ENCODING 7841
SWIDTH 617 0
DWIDTH 6 0
BBX 5 7 0 -2
BITMAP
78
C8
C8
C8
78
00
30
ENDCHAR
STARTCHAR 1EA2
ENCODING 7842
SWIDTH 617 0
DWIDTH 6 0
BBX 6 10 0 0
BITMAP
10
08
10
10
30
28
68
78
44
C4
ENDCHAR
STARTCHAR 1EA3
ENCODING 7843
SWIDTH 617 0
DWIDTH 6 0
BBX 5 8 0 0
BITMAP
30
10
00
78
C8
C8
C8
78
ENDCHAR
STARTCHAR 1EA4
ENCODING 7844
SWIDTH 617 0
DWIDTH 6 0
BBX 7 11 0 0
BITMAP
02
04
30
68
10
30
28
68
78
44
C4
ENDCHAR
STARTCHAR 1EA5
ENCODING 7845
SWIDTH 617 0
DWIDTH 6 0
BBX 6 9 0 0
BITMAP
04
04
30
00
78
C8
C8
C8
78
ENDCHAR
STARTCHAR 1EA6
ENCODING 7846
SWIDTH 617 0
DWIDTH 6 0
BBX 6 11 0 0
BITMAP
18
08
30
68
10
30
28
68
78
44
C4
ENDCHAR
STARTCHAR 1EA7
ENCODING 7847
SWIDTH 617 0
DWIDTH 6 0
BBX 5 9 0 0
BITMAP
18
08
30
00
78
C8
C8
C8
78
ENDCHAR
STARTCHAR 1EA8
ENCODING 7848
SWIDTH 617 0
DWIDTH 6 0
BBX 6 11 0 0
BITMAP
0C
04
30
68
10
30
28
68
78
44
C4
ENDCHAR
STARTCHAR 1EA9
ENCODING 7849
SWIDTH 617 0
DWIDTH 6 0
BBX 6 9 0 0
BITMAP
0C
04
30
00
78
C8
C8
C8
78
ENDCHAR
STARTCHAR 1EAA
ENCODING 7850
SWIDTH 617 0
DWIDTH 6 0
BBX 6 11 0 0
BITMAP
28
10
30
68
10
30
28
68
78
44
C4
ENDCHAR
STARTCHAR 1EAB
ENCODING 7851
SWIDTH 617 0
DWIDTH 6 0
BBX 5 9 0 0
BITMAP
38
00
30
00
78
C8
C8
C8
78
ENDCHAR
STARTCHAR 1EAC
ENCODING 7852
SWIDTH 617 0
DWIDTH 6 0
BBX 6 11 0 -2
BITMAP
30
68
10
30
28
68
78
44
C4
00
10
ENDCHAR
STARTCHAR 1EAD
ENCODING 7853
SWIDTH 617 0
DWIDTH 6 0
BBX 5 9 0 -2
BITMAP
30
00
78
C8
C8
C8
78
00
30
ENDCHAR
STARTCHAR 1EAE
ENCODING 7854
SWIDTH 617 0
DWIDTH 6 0
BBX 6 11 0 0
BITMAP
18
10
28
10
10
30
28
68
78
44
C4
ENDCHAR
STARTCHAR 1EAF
ENCODING 7855
SWIDTH 617 0
DWIDTH 6 0
BBX 5 9 0 0
BITMAP
10
30
30
00
78
C8
C8
C8
78
ENDCHAR
STARTCHAR 1EB0
ENCODING 7856
SWIDTH 617 0
DWIDTH 6 0
BBX 6 11 0 0
BITMAP
20
10
28
10
10
30
28
68
78
44
C4
ENDCHAR
STARTCHAR 1EB1
ENCODING 7857
SWIDTH 617 0
DWIDTH 6 0
BBX 5 9 0 0
BITMAP
20
30
30
00
78
C8
C8
C8
78
ENDCHAR
STARTCHAR 1EB2
ENCODING 7858
SWIDTH 617 0
DWIDTH 6 0
BBX 6 11 0 0
BITMAP
30
10
28
10
10
30
28
68
78
44
C4
ENDCHAR
STARTCHAR 1EB3
ENCODING 7859
SWIDTH 617 0
DWIDTH 6 0
BBX 5 9 0 0
BITMAP
30
20
30
00
78
C8
C8
C8
78
ENDCHAR
STARTCHAR 1EB4
ENCODING 7860
SWIDTH 617 0
DWIDTH 6 0
BBX 6 11 0 0
BITMAP
28
58
28
10
10
30
28
68
78
44
C4
ENDCHAR
STARTCHAR 1EB5
ENCODING 7861
SWIDTH 617 0
DWIDTH 6 0
BBX 5 9 0 0
BITMAP
28
10
30
00
78
C8
C8
C8
78
ENDCHAR
STARTCHAR 1EB6
ENCODING 7862
SWIDTH 617 0
DWIDTH 6 0
BBX 6 11 0 -2
BITMAP
28
10
10
30
28
68
78
44
C4
00
10
ENDCHAR
STARTCHAR 1EB7
ENCODING 7863
SWIDTH 617 0
DWIDTH 6 0
BBX 5 9 0 -2
BITMAP
30
00
78
C8
C8
C8
78
00
30
ENDCHAR
STARTCHAR 1EB8
ENCODING 7864
SWIDTH 514 0
DWIDTH 5 0
BBX 4 9 1 -2
BITMAP
F0
80
80
F0
80
80
F0
00
40
ENDCHAR
STARTCHAR 1EB9
ENCODING 7865
SWIDTH 514 0
DWIDTH 5 0
BBX 5 7 0 -2
BITMAP
78
48
F8
48
70
00
30
ENDCHAR
STARTCHAR 1EBA
ENCODING 7866
SWIDTH 514 0
DWIDTH 5 0
BBX 4 10 1 0
BITMAP
40
20
00
F0
80
80
F0
80
80
F0
ENDCHAR
STARTCHAR 1EBB
ENCODING 7867
SWIDTH 514 0
DWIDTH 5 0
BBX 5 8 0 0
BITMAP
30
10
00
78
48
F8
48
70
ENDCHAR
STARTCHAR 1EBC
ENCODING 7868
SWIDTH 514 0
DWIDTH 5 0
BBX 4 9 1 0
BITMAP
E0
00
F0
80
80
F0
80
80
F0
ENDCHAR
STARTCHAR 1EBD
ENCODING 7869
SWIDTH 514 0
DWIDTH 5 0
BBX 5 7 0 0
BITMAP
70
00
78
48
F8
48
70
ENDCHAR
STARTCHAR 1EBE
ENCODING 7870
SWIDTH 514 0
DWIDTH 5 0
BBX 5 11 1 0
BITMAP
08
18
60
B0
F0
80
80
F0
80
80
F0
ENDCHAR
STARTCHAR 1EBF
ENCODING 7871
SWIDTH 514 0
DWIDTH 5 0
BBX 6 9 0 0
BITMAP
04
0C
30
40
78
48
F8
48
70
ENDCHAR
STARTCHAR 1EC0
ENCODING 7872
SWIDTH 514 0
DWIDTH 5 0
BBX 4 11 1 0
BITMAP
20
10
60
B0
F0
80
80
F0
80
80
F0
ENDCHAR
STARTCHAR 1EC1
ENCODING 7873
SWIDTH 514 0
DWIDTH 5 0
BBX 5 9 0 0
BITMAP
18
08
30
40
78
48
F8
48
70
ENDCHAR
STARTCHAR 1EC2
ENCODING 7874
SWIDTH 514 0
DWIDTH 5 0
BBX 5 11 1 0
BITMAP
18
08
60
B0
F0
80
80
F0
80
80
F0
ENDCHAR
STARTCHAR 1EC3
ENCODING 7875
SWIDTH 514 0
DWIDTH 5 0
BBX 6 9 0 0
BITMAP
1C
04
30
40
78
48
F8
48
70
ENDCHAR
STARTCHAR 1EC4
ENCODING 7876
SWIDTH 514 0
DWIDTH 5 0
BBX 4 11 1 0
BITMAP
40
A0
60
B0
F0
80
80
F0
80
80
F0
ENDCHAR
STARTCHAR 1EC5
ENCODING 7877
SWIDTH 514 0
DWIDTH 5 0
BBX 5 9 0 0
BITMAP
70
00
30
40
78
48
F8
48
70
ENDCHAR
STARTCHAR 1EC6
ENCODING 7878
SWIDTH 514 0
DWIDTH 5 0
BBX 4 11 1 -2
BITMAP
60
B0
F0
80
80
F0
80
80
F0
00
40
ENDCHAR
STARTCHAR 1EC7
ENCODING 7879
SWIDTH 514 0
DWIDTH 5 0
BBX 5 9 0 -2
BITMAP
30
40
78
48
F8
48
70
00
30
ENDCHAR
STARTCHAR 1EC8
ENCODING 7880
SWIDTH 205 0
DWIDTH 2 0
BBX 2 10 1 0
BITMAP
80
40
80
80
80
80
80
80
80
80
ENDCHAR
STARTCHAR 1EC9
ENCODING 7881
SWIDTH 205 0
DWIDTH 2 0
BBX 3 8 0 0
BITMAP
C0
20
40
40
40
40
40
40
ENDCHAR
STARTCHAR 1ECA
ENCODING 7882
SWIDTH 205 0
DWIDTH 2 0
BBX 1 9 1 -2
BITMAP
80
80
80
80
80
80
80
00
80
ENDCHAR
STARTCHAR 1ECB
ENCODING 7883
SWIDTH 205 0
DWIDTH 2 0
BBX 1 9 1 -1
BITMAP
80
00
80
80
80
80
80
00
80
ENDCHAR
STARTCHAR 1ECC
ENCODING 7884
SWIDTH 720 0
DWIDTH 7 0
BBX 7 9 0 -2
BITMAP
38
6C
46
C6
C6
64
38
00
10
ENDCHAR
STARTCHAR 1ECD
ENCODING 7885
SWIDTH 514 0
DWIDTH 5 0
BBX 5 7 0 -2
BITMAP
78
48
C8
48
70
00
30
ENDCHAR
STARTCHAR 1ECE
ENCODING 7886
SWIDTH 720 0
DWIDTH 7 0
BBX 7 10 0 0
BITMAP
10
08
00
38
6C
46
C6
C6
64
38
ENDCHAR
STARTCHAR 1ECF
ENCODING 7887
SWIDTH 514 0
DWIDTH 5 0
BBX 5 8 0 0
BITMAP
30
10
00
78
48
C8
48
70
ENDCHAR
STARTCHAR 1ED0
ENCODING 7888
SWIDTH 720 0
DWIDTH 7 0
BBX 7 11 0 0
BITMAP
02
04
10
28
38
6C
46
C6
C6
64
38
ENDCHAR
STARTCHAR 1ED1
ENCODING 7889
SWIDTH 514 0
DWIDTH 5 0
BBX 6 9 0 0
BITMAP
04
0C
30
40
78
48
C8
48
70
ENDCHAR
STARTCHAR 1ED2
ENCODING 7890
SWIDTH 720 0
DWIDTH 7 0
BBX 7 11 0 0
BITMAP
08
0C
10
28
38
6C
46
C6
C6
64
38
ENDCHAR
STARTCHAR 1ED3
ENCODING 7891
SWIDTH 514 0
DWIDTH 5 0
BBX 5 9 0 0
BITMAP
18
08
30
40
78
48
C8
48
70
ENDCHAR
STARTCHAR 1ED4
ENCODING 7892
SWIDTH 720 0
DWIDTH 7 0
BBX 7 11 0 0
BITMAP
0C
04
10
28
38
6C
46
C6
C6
64
38
ENDCHAR
STARTCHAR 1ED5
ENCODING 7893
SWIDTH 514 0
DWIDTH 5 0
BBX 6 9 0 0
BITMAP
1C
04
30
40
78
48
C8
48
70
ENDCHAR
STARTCHAR 1ED6
ENCODING 7894
SWIDTH 720 0
DWIDTH 7 0
BBX 7 11 0 0
BITMAP
28
38
10
28
38
6C
46
C6
C6
64
38
ENDCHAR
STARTCHAR 1ED7
ENCODING 7895
SWIDTH 514 0
DWIDTH 5 0
BBX 5 9 0 0
BITMAP
70
00
30
40
78
48
C8
48
70
ENDCHAR
STARTCHAR 1ED8
ENCODING 7896
SWIDTH 720 0
DWIDTH 7 0
BBX 7 11 0 -2
BITMAP
10
28
38
6C
46
C6
C6
64
38
00
10
ENDCHAR
STARTCHAR 1ED9
ENCODING 7897
SWIDTH 514 0
DWIDTH 5 0
BBX 5 9 0 -2
BITMAP
30
40
78
48
C8
48
70
00
30
ENDCHAR
STARTCHAR 1EDA
ENCODING 7898
SWIDTH 720 0
DWIDTH 7 0
BBX 7 9 0 0
BITMAP
18
04
3C
6C
46
C6
C6
64
38
ENDCHAR
STARTCHAR 1EDB
ENCODING 7899
SWIDTH 514 0
DWIDTH 5 0
BBX 6 8 0 0
BITMAP
10
10
04
78
48
C8
48
70
ENDCHAR
STARTCHAR 1EDC
ENCODING 7900
SWIDTH 720 0
DWIDTH 7 0
BBX 7 9 0 0
BITMAP
30
04
3C
6C
46
C6
C6
64
38
ENDCHAR
STARTCHAR 1EDD
ENCODING 7901
SWIDTH 514 0
DWIDTH 5 0
BBX 6 8 0 0
BITMAP
60
20
04
78
48
C8
48
70
ENDCHAR
STARTCHAR 1EDE
ENCODING 7902
SWIDTH 720 0
DWIDTH 7 0
BBX 7 10 0 0
BITMAP
10
08
04
3C
6C
46
C6
C6
64
38
ENDCHAR
STARTCHAR 1EDF
ENCODING 7903
SWIDTH 514 0
DWIDTH 5 0
BBX 6 8 0 0
BITMAP
30
10
04
78
48
C8
48
70
ENDCHAR
STARTCHAR 1EE0
ENCODING 7904
SWIDTH 720 0
DWIDTH 7 0
BBX 7 9 0 0
BITMAP
38
04
3C
6C
46
C6
C6
64
38
ENDCHAR
STARTCHAR 1EE1
ENCODING 7905
SWIDTH 514 0
DWIDTH 5 0
BBX 6 7 0 0
BITMAP
70
04
78
48
C8
48
70
ENDCHAR
STARTCHAR 1EE2
ENCODING 7906
SWIDTH 720 0
DWIDTH 7 0
BBX 7 10 0 -2
BITMAP
04
3C
6C
46
C6
C6
64
38
00
10
ENDCHAR
STARTCHAR 1EE3
ENCODING 7907
SWIDTH 514 0
DWIDTH 5 0
BBX 6 8 0 -2
BITMAP
04
78
48
C8
48
70
00
30
ENDCHAR
STARTCHAR 1EE4
ENCODING 7908
SWIDTH 617 0
DWIDTH 6 0
BBX 5 9 1 -2
BITMAP
88
88
88
88
88
98
F0
00
20
ENDCHAR
STARTCHAR 1EE5
ENCODING 7909
SWIDTH 514 0
DWIDTH 5 0
BBX 4 7 1 -2
BITMAP
90
90
90
90
F0
00
60
ENDCHAR
STARTCHAR 1EE6
ENCODING 7910
SWIDTH 617 0
DWIDTH 6 0
BBX 5 10 1 0
BITMAP
20
10
20
88
88
88
88
88
98
F0
ENDCHAR
STARTCHAR 1EE7
ENCODING 7911
SWIDTH 514 0
DWIDTH 5 0
BBX 4 8 1 0
BITMAP
60
20
00
90
90
90
90
F0
ENDCHAR
STARTCHAR 1EE8
ENCODING 7912
SWIDTH 617 0
DWIDTH 6 0
BBX 6 9 1 0
BITMAP
30
04
8C
88
88
88
88
98
F0
ENDCHAR
STARTCHAR 1EE9
ENCODING 7913
SWIDTH 514 0
DWIDTH 5 0
BBX 5 8 1 0
BITMAP
20
20
08
90
90
90
90
F0
ENDCHAR
STARTCHAR 1EEA
ENCODING 7914
SWIDTH 617 0
DWIDTH 6 0
BBX 6 9 1 0
BITMAP
40
04
8C
88
88
88
88
98
F0
ENDCHAR
STARTCHAR 1EEB
ENCODING 7915
SWIDTH 514 0
DWIDTH 5 0
BBX 5 8 1 0
BITMAP
80
40
08
90
90
90
90
F0
ENDCHAR
STARTCHAR 1EEC
ENCODING 7916
SWIDTH 617 0
DWIDTH 6 0
BBX 6 10 1 0
BITMAP
20
10
24
8C
88
88
88
88
98
F0
ENDCHAR
STARTCHAR 1EED
ENCODING 7917
SWIDTH 514 0
DWIDTH 5 0
BBX 5 8 1 0
BITMAP
60
20
08
90
90
90
90
F0
ENDCHAR
STARTCHAR 1EEE
ENCODING 7918
SWIDTH 617 0
DWIDTH 6 0
BBX 6 9 1 0
BITMAP
70
04
8C
88
88
88
88
98
F0
ENDCHAR
STARTCHAR 1EEF
ENCODING 7919
SWIDTH 514 0
DWIDTH 5 0
BBX 5 7 1 0
BITMAP
E0
08
90
90
90
90
F0
ENDCHAR
STARTCHAR 1EF0
ENCODING 7920
SWIDTH 617 0
DWIDTH 6 0
BBX 6 10 1 -2
BITMAP
04
8C
88
88
88
88
98
F0
00
20
ENDCHAR
STARTCHAR 1EF1
ENCODING 7921
SWIDTH 514 0
DWIDTH 5 0
BBX 5 8 1 -2
BITMAP
08
90
90
90
90
F0
00
60
ENDCHAR
STARTCHAR 1EF2
ENCODING 7922
SWIDTH 617 0
DWIDTH 6 0
BBX 6 9 0 0
BITMAP
20
00
CC
48
68
30
30
30
30
ENDCHAR
STARTCHAR 1EF3
ENCODING 7923
SWIDTH 514 0
DWIDTH 5 0
BBX 5 10 0 -2
BITMAP
40
20
00
C8
58
50
30
20
20
E0
ENDCHAR
STARTCHAR 1EF4
ENCODING 7924
SWIDTH 617 0
DWIDTH 6 0
BBX 6 9 0 -2
BITMAP
CC
48
68
30
30
30
30
00
30
ENDCHAR
STARTCHAR 1EF5
ENCODING 7925
SWIDTH 514 0
DWIDTH 5 0
BBX 5 7 0 -2
BITMAP
C8
58
50
30
20
20
E8
ENDCHAR
STARTCHAR 1EF6
ENCODING 7926
SWIDTH 617 0
DWIDTH 6 0
BBX 6 10 0 0
BITMAP
10
30
00
CC
48
68
30
30
30
30
ENDCHAR
STARTCHAR 1EF7
ENCODING 7927
SWIDTH 514 0
DWIDTH 5 0
BBX 5 10 0 -2
BITMAP
30
10
00
C8
58
50
30
20
20
E0
ENDCHAR
STARTCHAR 1EF8
ENCODING 7928
SWIDTH 617 0
DWIDTH 6 0
BBX 6 9 0 0
BITMAP
38
00
CC
48
68
30
30
30
30
ENDCHAR
STARTCHAR 1EF9
ENCODING 7929
SWIDTH 514 0
DWIDTH 5 0
BBX 5 9 0 -2
BITMAP
70
00
C8
58
50
30
20
20
E0
ENDCHAR
STARTCHAR 2013
ENCODING 8211
SWIDTH 617 0
DWIDTH 6 0
BBX 4 2 1 2
BITMAP
F0
F0
ENDCHAR
STARTCHAR 2014
ENCODING 8212
SWIDTH 720 0
DWIDTH 7 0
BBX 5 2 1 2
BITMAP
F8
F8
ENDCHAR
STARTCHAR 2018
ENCODING 8216
SWIDTH 205 0
DWIDTH 2 0
BBX 1 3 1 5
BITMAP
80
80
80
ENDCHAR
STARTCHAR 2019
ENCODING 8217
SWIDTH 205 0
DWIDTH 2 0
BBX 1 3 1 5
BITMAP
80
80
80
ENDCHAR
STARTCHAR 201A
ENCODING 8218
SWIDTH 205 0
DWIDTH 2 0
BBX 1 3 1 -2
BITMAP
80
80
80
ENDCHAR
STARTCHAR 201C
ENCODING 8220
SWIDTH 514 0
DWIDTH 5 0
BBX 4 3 1 5
BITMAP
80
A0
B0
ENDCHAR
STARTCHAR 201D
ENCODING 8221
SWIDTH 514 0
DWIDTH 5 0
BBX 4 3 1 5
BITMAP
A0
B0
90
ENDCHAR
STARTCHAR 201E
ENCODING 8222
SWIDTH 514 0
DWIDTH 5 0
BBX 4 3 1 -2
BITMAP
B0
90
A0
ENDCHAR
STARTCHAR 2020
ENCODING 8224
SWIDTH 514 0
DWIDTH 5 0
BBX 4 9 1 -2
BITMAP
40
40
F0
40
40
40
40
40
40
ENDCHAR
STARTCHAR 2021
ENCODING 8225
SWIDTH 514 0
DWIDTH 5 0
BBX 4 9 1 -2
BITMAP
40
40
F0
40
40
40
40
F0
40
ENDCHAR
STARTCHAR 2022
ENCODING 8226
SWIDTH 411 0
DWIDTH 4 0
BBX 2 3 1 2
BITMAP
80
C0
80
ENDCHAR
STARTCHAR 2026
ENCODING 8230
SWIDTH 822 0
DWIDTH 8 0
BBX 7 1 1 0
BITMAP
B6
ENDCHAR
STARTCHAR 2030
ENCODING 8240
SWIDTH 1131 0
DWIDTH 11 0
BBX 11 7 0 0
BITMAP
6400
AC00
6800
1000
1640
26A0
26E0
ENDCHAR
STARTCHAR 2039
ENCODING 8249
SWIDTH 308 0
DWIDTH 3 0
BBX 2 4 1 1
BITMAP
40
80
80
40
ENDCHAR
STARTCHAR 203A
ENCODING 8250
SWIDTH 308 0
DWIDTH 3 0
BBX 2 4 1 1
BITMAP
80
40
40
80
ENDCHAR
STARTCHAR 2044
ENCODING 8260
SWIDTH 411 0
DWIDTH 4 0
BBX 5 7 0 0
BITMAP
08
10
30
20
40
40
80
ENDCHAR
STARTCHAR 2070
ENCODING 8304
SWIDTH 308 0
DWIDTH 3 0
BBX 3 3 0 4
BITMAP
E0
A0
E0
ENDCHAR
STARTCHAR 2074
ENCODING 8308
SWIDTH 308 0
DWIDTH 3 0
BBX 3 3 0 4
BITMAP
60
A0
60
ENDCHAR
STARTCHAR 2075
ENCODING 8309
SWIDTH 308 0
DWIDTH 3 0
BBX 3 3 0 4
BITMAP
C0
E0
E0
ENDCHAR
STARTCHAR 2076
ENCODING 8310
SWIDTH 308 0
DWIDTH 3 0
BBX 3 3 0 4
BITMAP
40
A0
E0
ENDCHAR
STARTCHAR 2077
ENCODING 8311
SWIDTH 205 0
DWIDTH 2 0
BBX 2 3 1 4
BITMAP
C0
80
80
ENDCHAR
STARTCHAR 2078
ENCODING 8312
SWIDTH 308 0
DWIDTH 3 0
BBX 3 3 0 4
BITMAP
E0
60
E0
ENDCHAR
STARTCHAR 2079
ENCODING 8313
SWIDTH 308 0
DWIDTH 3 0
BBX 3 3 0 4
BITMAP
E0
E0
40
ENDCHAR
STARTCHAR 2080
ENCODING 8320
SWIDTH 308 0
DWIDTH 3 0
BBX 3 3 0 -2
BITMAP
E0
A0
E0
ENDCHAR
STARTCHAR 2081
ENCODING 8321
SWIDTH 205 0
DWIDTH 2 0
BBX 2 3 0 -2
BITMAP
C0
40
40
ENDCHAR
STARTCHAR 2082
ENCODING 8322
SWIDTH 205 0
DWIDTH 2 0
BBX 3 3 0 -2
BITMAP
E0
20
40
ENDCHAR
STARTCHAR 2083
ENCODING 8323
SWIDTH 308 0
DWIDTH 3 0
BBX 3 3 0 -2
BITMAP
E0
40
E0
ENDCHAR
STARTCHAR 2084
ENCODING 8324
SWIDTH 308 0
DWIDTH 3 0
BBX 3 3 0 -2
BITMAP
60
A0
E0
ENDCHAR
STARTCHAR 2085
ENCODING 8325
SWIDTH 308 0
DWIDTH 3 0
BBX 3 3 0 -2
BITMAP
E0
E0
E0
ENDCHAR
STARTCHAR 2086
ENCODING 8326
SWIDTH 308 0
DWIDTH 3 0
BBX 3 3 0 -2
BITMAP
40
E0
E0
ENDCHAR
STARTCHAR 2087
ENCODING 8327
SWIDTH 205 0
DWIDTH 2 0
BBX 3 3 0 -2
BITMAP
E0
40
40
ENDCHAR
STARTCHAR 2088
ENCODING 8328
SWIDTH 308 0
DWIDTH 3 0
BBX 3 3 0 -2
BITMAP
E0
40
E0
ENDCHAR
STARTCHAR 2089
ENCODING 8329
SWIDTH 308 0
DWIDTH 3 0
BBX 3 3 0 -2
BITMAP
E0
A0
40
ENDCHAR
STARTCHAR 20AB
ENCODING 8363
SWIDTH 514 0
DWIDTH 5 0
BBX 5 8 0 0
BITMAP
08
18
78
C8
C8
78
00
78
ENDCHAR
STARTCHAR 20AC
ENCODING 8364
SWIDTH 617 0
DWIDTH 6 0
BBX 6 7 0 0
BITMAP
38
6C
44
60
F0
64
38
ENDCHAR
STARTCHAR 2122
ENCODING 8482
SWIDTH 411 0
DWIDTH 4 0
BBX 4 2 0 5
BITMAP
B0
10
ENDCHAR
STARTCHAR 215B
ENCODING 8539
SWIDTH 822 0
DWIDTH 8 0
BBX 8 7 0 0
BITMAP
42
C4
44
E8
1B
13
23
ENDCHAR
STARTCHAR 215C
ENCODING 8540
SWIDTH 822 0
DWIDTH 8 0
BBX 7 7 1 0
BITMAP
C4
48
58
D0
26
26
46
ENDCHAR
STARTCHAR 215D
ENCODING 8541
SWIDTH 822 0
DWIDTH 8 0
BBX 8 7 0 0
BITMAP
E2
E4
A4
48
1B
13
23
ENDCHAR
STARTCHAR 215E
ENCODING 8542
SWIDTH 822 0
DWIDTH 8 0
BBX 8 7 0 0
BITMAP
E2
24
4C
48
13
13
23
ENDCHAR
STARTCHAR 2212
ENCODING 8722
SWIDTH 514 0
DWIDTH 5 0
BBX 4 2 1 2
BITMAP
F0
F0
ENDCHAR
STARTCHAR 2215
ENCODING 8725
SWIDTH 514 0
DWIDTH 5 0
BBX 4 7 1 0
BITMAP
10
20
20
40
40
80
80
ENDCHAR
STARTCHAR 2248
ENCODING 8776
SWIDTH 514 0
DWIDTH 5 0
BBX 4 4 1 1
BITMAP
D0
A0
00
E0
ENDCHAR
STARTCHAR 2260
ENCODING 8800
SWIDTH 720 0
DWIDTH 7 0
BBX 5 6 1 0
BITMAP
18
F8
F8
20
F8
40
ENDCHAR
STARTCHAR 2264
ENCODING 8804
SWIDTH 514 0
DWIDTH 5 0
BBX 4 6 1 0
BITMAP
30
C0
60
10
00
F0
ENDCHAR
STARTCHAR 2265
ENCODING 8805
SWIDTH 617 0
DWIDTH 6 0
BBX 4 6 1 0
BITMAP
C0
30
70
C0
00
F0
ENDCHAR
ENDFONT
